<svg width="21" height="18" viewBox="0 0 21 18" fill="none" xmlns="http://www.w3.org/2000/svg">
<path d="M19.1603 2C18.1002 0.937205 16.6951 0.288538 15.1986 0.171168C13.7021 0.0537975 12.213 0.475464 11.0003 1.36C9.72793 0.413635 8.14427 -0.0154912 6.5682 0.159035C4.99212 0.333561 3.54072 1.09878 2.50625 2.30058C1.47178 3.50239 0.931098 5.05152 0.993077 6.63601C1.05506 8.2205 1.71509 9.72267 2.84028 10.84L9.05028 17.06C9.57029 17.5718 10.2707 17.8586 11.0003 17.8586C11.7299 17.8586 12.4303 17.5718 12.9503 17.06L19.1603 10.84C20.3279 9.66526 20.9832 8.07627 20.9832 6.42C20.9832 4.76372 20.3279 3.17473 19.1603 2ZM17.7503 9.46L11.5403 15.67C11.4696 15.7414 11.3855 15.798 11.2928 15.8366C11.2001 15.8753 11.1007 15.8952 11.0003 15.8952C10.8999 15.8952 10.8004 15.8753 10.7077 15.8366C10.615 15.798 10.5309 15.7414 10.4603 15.67L4.25028 9.43C3.46603 8.62834 3.02689 7.55146 3.02689 6.43C3.02689 5.30853 3.46603 4.23165 4.25028 3.43C5.04943 2.64099 6.12725 2.19857 7.25028 2.19857C8.3733 2.19857 9.45112 2.64099 10.2503 3.43C10.3432 3.52373 10.4538 3.59812 10.5757 3.64889C10.6976 3.69966 10.8283 3.7258 10.9603 3.7258C11.0923 3.7258 11.223 3.69966 11.3449 3.64889C11.4667 3.59812 11.5773 3.52373 11.6703 3.43C12.4694 2.64099 13.5472 2.19857 14.6703 2.19857C15.7933 2.19857 16.8711 2.64099 17.6703 3.43C18.4653 4.22115 18.9189 5.29219 18.9338 6.41368C18.9488 7.53518 18.5239 8.61793 17.7503 9.43V9.46Z" fill="black"/>
</svg>
