<svg width="10" height="10" viewBox="0 0 10 10" fill="none" xmlns="http://www.w3.org/2000/svg">
<path d="M6.0575 5.00002L9.2825 1.78252C9.42373 1.64129 9.50307 1.44974 9.50307 1.25002C9.50307 1.05029 9.42373 0.858745 9.2825 0.717517C9.14127 0.576289 8.94973 0.496948 8.75 0.496948C8.55027 0.496948 8.35873 0.576289 8.2175 0.717517L5 3.94252L1.7825 0.717517C1.64127 0.576289 1.44973 0.496948 1.25 0.496948C1.05027 0.496948 0.858728 0.576289 0.7175 0.717517C0.576272 0.858745 0.496931 1.05029 0.496931 1.25002C0.496931 1.44974 0.576272 1.64129 0.7175 1.78252L3.9425 5.00002L0.7175 8.21752C0.647204 8.28724 0.591408 8.37019 0.553332 8.46158C0.515255 8.55298 0.495651 8.65101 0.495651 8.75002C0.495651 8.84903 0.515255 8.94706 0.553332 9.03845C0.591408 9.12984 0.647204 9.21279 0.7175 9.28252C0.787222 9.35281 0.870173 9.40861 0.961567 9.44669C1.05296 9.48476 1.15099 9.50437 1.25 9.50437C1.34901 9.50437 1.44704 9.48476 1.53843 9.44669C1.62983 9.40861 1.71278 9.35281 1.7825 9.28252L5 6.05752L8.2175 9.28252C8.28722 9.35281 8.37017 9.40861 8.46157 9.44669C8.55296 9.48476 8.65099 9.50437 8.75 9.50437C8.84901 9.50437 8.94704 9.48476 9.03843 9.44669C9.12983 9.40861 9.21278 9.35281 9.2825 9.28252C9.3528 9.21279 9.40859 9.12984 9.44667 9.03845C9.48475 8.94706 9.50435 8.84903 9.50435 8.75002C9.50435 8.65101 9.48475 8.55298 9.44667 8.46158C9.40859 8.37019 9.3528 8.28724 9.2825 8.21752L6.0575 5.00002Z" fill="white"/>
</svg>
